# xmcd
#
# Track frame offsets: 
#        150
#        27612
#        61952
#        86043
#        111466
#        136213
#        167310
#        195232
#        224986
#        254933
#
# Disc length: 3652 seconds
#
# Revision: 0
# Processed by: cddbd v1.5.2PL0 Copyright (c) Steve Scherf et al.
# Submitted via: ExactAudioCopyFreeDBPlugin 1.0
#
DISCID=9a0e420a
DTITLE=Jacek Raganowicz Quartet - Return To Myself
DYEAR=2009
DGENRE=Blues
TTITLE0=The Last Fly
TTITLE1=My Funny Valentine
TTITLE2=Talking With A wIFE
TTITLE3=Shopping Blues
TTITLE4=Helmut Take It Easy
TTITLE5=The Light Of Stars
TTITLE6=Return To Myself
TTITLE7=The Break Up
TTITLE8=Holidays
TTITLE9=The Peace Of Soul
EXTD=
EXTT0=
EXTT1=
EXTT2=
EXTT3=
EXTT4=
EXTT5=
EXTT6=
EXTT7=
EXTT8=
EXTT9=
PLAYORDER=
